<?xml version="1.0" encoding="UTF-8"?>
<svg width="97px" height="27px" viewBox="0 0 97 27" version="1.1" xmlns="http://www.w3.org/2000/svg" xmlns:xlink="http://www.w3.org/1999/xlink">
    <!-- Generator: Sketch 53 (72520) - https://sketchapp.com -->
    <title>ABBYY-logo-95x27</title>
    <desc>Created with Sketch.</desc>
    <g id="Page-1" stroke="none" stroke-width="1" fill="none" fill-rule="evenodd">
        <g id="Mobile_completed" transform="translate(-206.000000, -58.000000)" fill="#C60C30" fill-rule="nonzero">
            <g id="Header" transform="translate(-46.000000, -65.000000)">
                <g id="ABBYY-logo-95x27" transform="translate(252.000000, 123.000000)">
                    <g id="Shape">
                        <path d="M27.5684211,16 C28.5894737,16 30.6315789,15.5 30.6315789,19 C30.6315789,22.5 28.5894737,22 27.5684211,22 L26.5473684,22 L26.5473684,16 L27.5684211,16 Z M27.5684211,5 C29.6105263,5 30.1210526,6 30.1210526,8 C30.1210526,10 29.6105263,11 27.5684211,11 L26.5473684,11 L26.5473684,5 L27.5684211,5 Z M20.4210526,0 L20.4210526,27 L29.6105263,27 C35.7368421,27 36.7578947,23 36.7578947,20 C36.7578947,17.16 35.9614737,14 32.6736842,13 C35.1673643,12.0152553 36.7888706,9.6331455 36.7578947,7 C36.7578947,1 31.6526316,0 28.5894737,0 L20.4210526,0 Z M45.9473684,16 C46.9684211,16 49.0105263,15.5 49.0105263,19 C49.0105263,22.5 46.9684211,22 45.9473684,22 L44.9263158,22 L44.9263158,16 L45.9473684,16 Z M45.9473684,5 C47.9894737,5 48.5,6 48.5,8 C48.5,10 47.9894737,11 45.9473684,11 L44.9263158,11 L44.9263158,5 L45.9473684,5 Z M38.8,0 L38.8,27 L47.9894737,27 C54.1157895,27 55.1368421,23 55.1368421,20 C55.1368421,17.16 54.3404211,14 51.0526316,13 C53.5463117,12.0152553 55.167818,9.6331455 55.1368421,7 C55.1368421,1 50.0315789,0 46.9684211,0 L38.8,0 Z M67.3894737,0 C67.3894737,0 65.1737895,9.16 64.6122105,10.82 C64.0812632,9.15 62.2842105,0 62.2842105,0 L56.1578947,0 C56.1578947,0 61.2631579,16.91 61.2631579,17 L61.2631579,27 L67.3894737,27 L67.3894737,17 L73.5157895,0 L67.3894737,0 Z M85.7684211,0 C85.7684211,0 83.5527368,9.16 82.9911579,10.82 C82.4602105,9.15 80.6631579,0 80.6631579,0 L74.5368421,0 C74.5368421,0 79.6421053,16.91 79.6421053,17 L79.6421053,27 L85.7684211,27 L85.7684211,17 L91.8947368,0 L85.7684211,0 Z M8.16842105,17 L9.7,8 L11.2315789,17 L8.16842105,17 Z M13.7842105,27 L19.4,27 L13.2736842,0 L6.12631579,0 L0,27 L5.61578947,27 L7.14736842,21.5 L12.2526316,21.5 L13.7842105,27 Z M94.9578947,0 C96.0857183,6.76353751e-17 97,0.8954305 97,2 C97,3.1045695 96.0857183,4 94.9578947,4 C93.8300711,4 92.9157895,3.1045695 92.9157895,2 C92.9157895,0.8954305 93.8300711,2.02906125e-16 94.9578947,0 Z M94.9578947,3.7 C95.4074659,3.68951822 95.8343562,3.50449097 96.1445887,3.18565075 C96.4548213,2.86681052 96.6229635,2.44029547 96.612,2 C96.612,1.42122971 96.2967294,0.88642389 95.7849474,0.597038732 C95.2731654,0.307653574 94.642624,0.307653574 94.1308421,0.597038732 C93.6190601,0.88642389 93.3037894,1.42122971 93.3037895,2 C93.290066,2.44104745 93.4572898,2.86910283 93.768104,3.18854089 C94.0789182,3.50797896 94.5074237,3.69218198 94.9578947,3.7 L94.9578947,3.7 Z M94.2125263,1 L95.1110526,1 C95.28239,0.973088657 95.4570517,1.02245867 95.5873988,1.13464437 C95.717746,1.24683008 95.7901811,1.41012848 95.7849474,1.58 C95.7924731,1.79372446 95.6486174,1.9843397 95.4377895,2.04 C95.7032632,2.09 95.7134737,2.32 95.7338947,2.52 C95.7543158,2.72 95.7338947,2.89 95.8155789,2.99 L95.4173684,2.99 C95.3458947,2.91 95.3561053,2.86 95.3458947,2.53 C95.3458947,2.35 95.3458947,2.16 94.8966316,2.16 L94.5903158,2.16 L94.5903158,3 L94.2125263,3 L94.2125263,1 Z M94.5903158,1.9 L95.0293684,1.9 C95.3458947,1.9 95.4071579,1.72 95.4071579,1.58 C95.4071579,1.44 95.2335789,1.28 94.9987368,1.28 L94.6005263,1.28 L94.5903158,1.9 Z"></path>
                    </g>
                </g>
            </g>
        </g>
    </g>
</svg>