<?xml version="1.0" encoding="UTF-8"?>
<svg width="27px" height="21px" viewBox="0 0 27 21" version="1.1" xmlns="http://www.w3.org/2000/svg" xmlns:xlink="http://www.w3.org/1999/xlink">
    <!-- Generator: Sketch 53 (72520) - https://sketchapp.com -->
    <title>Features-195v3-55x55 Copy 2</title>
    <desc>Created with Sketch.</desc>
    <g id="Page-1" stroke="none" stroke-width="1" fill="none" fill-rule="evenodd">
        <g id="Mobile2_verifiedaddress" transform="translate(-259.000000, -850.000000)" fill="#607ACD">
            <g id="Group-4-Copy" transform="translate(15.000000, 839.000000)">
                <g id="Group-3" transform="translate(11.000000, 11.000000)">
                    <g id="Features-195v3-55x55-Copy-2" transform="translate(233.000000, 0.000000)">
                        <path d="M16.72,2 L18.928,4.86315789 L19.48,5.57894737 L25,5.57894737 L25,19 L2,19 L2,5.57894737 L7.52,5.57894737 L8.072,4.86315789 L10.28,2 L16.72,2 L16.72,2 Z M17.6896552,0 L9.31034483,0 L6.51724138,3.65217391 L0,3.65217391 L0,21 L27,21 L27,3.65217391 L20.4827586,3.65217391 L17.6896552,0 Z" id="Shape" fill-rule="nonzero"></path>
                        <rect id="Rectangle" x="2" y="2" width="4" height="3"></rect>
                        <path d="M13.5,8 C15.4329966,8 17,9.56700338 17,11.5 C17,13.4329966 15.4329966,15 13.5,15 C11.5670034,15 10,13.4329966 10,11.5 C10,9.56700338 11.5670034,8 13.5,8 L13.5,8 Z M13.5,6 C10.4624339,6 8,8.46243388 8,11.5 C8,14.5375661 10.4624339,17 13.5,17 C16.5375661,17 19,14.5375661 19,11.5 C19,8.46243388 16.5375661,6 13.5,6 L13.5,6 Z" id="Shape" fill-rule="nonzero"></path>
                        <rect id="Rectangle" x="1" y="9" width="8" height="2"></rect>
                        <rect id="Rectangle" x="18" y="9" width="8" height="2"></rect>
                    </g>
                </g>
            </g>
        </g>
    </g>
</svg>