<?xml version="1.0" encoding="UTF-8"?>
<svg width="29px" height="23px" viewBox="0 0 29 23" version="1.1" xmlns="http://www.w3.org/2000/svg" xmlns:xlink="http://www.w3.org/1999/xlink">
    <!-- Generator: Sketch 53 (72520) - https://sketchapp.com -->
    <title>Features-195v3-55x55</title>
    <desc>Created with Sketch.</desc>
    <g id="Page-1" stroke="none" stroke-width="1" fill="none" fill-rule="evenodd">
        <g id="Tablet2" transform="translate(-251.000000, -917.000000)" fill="#FFFFFF">
            <g id="Scan-button" transform="translate(-1.000000, 895.000000)">
                <g id="Features-195v3-55x55" transform="translate(252.000000, 22.000000)">
                    <path d="M18,2 L20.4,5.2 L21,6 L27,6 L27,21 L2,21 L2,6 L8,6 L8.6,5.2 L11,2 L18,2 L18,2 Z M19,0 L10,0 L7,4 L0,4 L0,23 L29,23 L29,4 L22,4 L19,0 Z" id="Shape" fill-rule="nonzero"></path>
                    <rect id="Rectangle" x="2" y="2" width="4" height="3"></rect>
                    <path d="M14.5,8 C16.9852814,8 19,10.0147186 19,12.5 C19,14.9852814 16.9852814,17 14.5,17 C12.0147186,17 10,14.9852814 10,12.5 C10,10.0147186 12.0147186,8 14.5,8 L14.5,8 Z M14.5,6 C10.9101491,6 8,8.91014913 8,12.5 C8,16.0898509 10.9101491,19 14.5,19 C18.0898509,19 21,16.0898509 21,12.5 C21,8.91014913 18.0898509,6 14.5,6 L14.5,6 Z" id="Shape" fill-rule="nonzero"></path>
                    <rect id="Rectangle" x="1" y="10" width="8" height="2"></rect>
                    <rect id="Rectangle" x="20" y="10" width="8" height="2"></rect>
                </g>
            </g>
        </g>
    </g>
</svg>